<?xml version="1.0" encoding="UTF-8" standalone="no"?>
<!-- Generator: Adobe Illustrator 16.2.1, SVG Export Plug-In . SVG Version: 6.00 Build 0)  -->

<svg
   xmlns:dc="http://purl.org/dc/elements/1.1/"
   xmlns:cc="http://creativecommons.org/ns#"
   xmlns:rdf="http://www.w3.org/1999/02/22-rdf-syntax-ns#"
   xmlns:svg="http://www.w3.org/2000/svg"
   xmlns="http://www.w3.org/2000/svg"
   xmlns:sodipodi="http://sodipodi.sourceforge.net/DTD/sodipodi-0.dtd"
   xmlns:inkscape="http://www.inkscape.org/namespaces/inkscape"
   version="1.1"
   id="Layer_1"
   x="0px"
   y="0px"
   width="128"
   height="128"
   viewBox="65 25 128 128"
   enable-background="new 65 25 150 70"
   xml:space="preserve"
   inkscape:version="0.91 r"
   sodipodi:docname="icon.svg"><metadata
     id="metadata33"><rdf:RDF><cc:Work
         rdf:about=""><dc:format>image/svg+xml</dc:format><dc:type
           rdf:resource="http://purl.org/dc/dcmitype/StillImage" /><dc:title></dc:title></cc:Work></rdf:RDF></metadata><defs
     id="defs31" /><sodipodi:namedview
     pagecolor="#ffffff"
     bordercolor="#666666"
     borderopacity="1"
     objecttolerance="10"
     gridtolerance="10"
     guidetolerance="10"
     inkscape:pageopacity="0"
     inkscape:pageshadow="2"
     inkscape:window-width="1920"
     inkscape:window-height="1028"
     id="namedview29"
     showgrid="false"
     inkscape:zoom="2.12"
     inkscape:cx="75.943396"
     inkscape:cy="35"
     inkscape:window-x="0"
     inkscape:window-y="0"
     inkscape:window-maximized="1"
     inkscape:current-layer="Layer_1" /><g
     id="g3"
     transform="matrix(0.84838275,0,0,0.77389303,10.141509,36.425021)"><g
       id="g5"><path
         d="m 169.459,37.158 c -0.791,0.138 -1.58,0.297 -2.369,0.48 -21.381,4.974 -42.084,26.061 -42.084,26.061 14.424,-12.604 28.525,-20.445 40.051,-23.297 0.679,-0.167 1.346,-0.312 2.002,-0.444 3.944,-0.797 7.55,-0.972 10.725,-0.525 0.074,-0.962 0.114,-1.88 0.121,-2.748 -2.784,-0.206 -5.613,-0.021 -8.446,0.473 z"
         id="path7"
         inkscape:connector-curvature="0"
         style="fill:#19398a" /><path
         d="m 182.013,37.285 c -0.13,-0.029 -0.262,-0.053 -0.392,-0.08 0.057,0.981 0.081,2.048 0.067,3.189 11.556,4.525 4.425,23.304 4.425,23.304 1.984,-2.623 9.259,-23.39 -4.1,-26.413 z"
         id="path9"
         inkscape:connector-curvature="0"
         style="fill:#19398a" /></g><g
       id="g11"><path
         d="m 150.367,63.672 c 0,0 8.543,-13.837 16.691,-23.714 -0.657,0.132 -1.324,0.276 -2.003,0.443 -3.777,5.293 -8.591,12.849 -14.688,23.271 z"
         id="path13"
         inkscape:connector-curvature="0"
         style="fill:#56a0d3" /><path
         d="m 181.62,37.206 c -0.238,-4.04 -1.062,-6.623 -2.343,-6.927 -0.066,-0.016 -0.133,-0.026 -0.201,-0.037 l -0.264,-0.022 -3.08,-0.301 c 0.002,0.001 0.005,-0.086 0.007,-0.085 -0.123,-0.011 -0.255,-0.083 -0.393,-0.083 l -0.079,0 0,0.178 c -1.604,0.196 -4.202,2.442 -8.217,7.71 0.789,-0.183 1.599,-0.342 2.389,-0.48 2.488,-2.78 4.863,-4.951 6.835,-6.08 0.209,-0.119 0.421,-0.267 0.619,-0.267 l 0.001,0 c 0.718,1.062 1.031,3.262 1.01,5.926 -0.007,0.867 -0.047,1.758 -0.121,2.722 -0.662,8.443 -3.886,19.967 -8.159,24.271 4.015,-0.224 6.446,1.341 7.691,2.127 2.965,-9.458 4.298,-18.744 4.373,-25.459 0.014,-1.141 -0.01,-2.212 -0.068,-3.193 z"
         id="path15"
         inkscape:connector-curvature="0"
         style="fill:#56a0d3" /></g><path
       d="m 106.634,52.812 0,31.257 c 0,1.762 0.236,2.915 0.708,3.458 0.474,0.544 1.466,0.812 2.977,0.812 l 0.274,0 0,1.295 -11.877,0 0,-1.295 0.383,0 c 1.477,0 2.441,-0.27 2.895,-0.812 0.455,-0.543 0.681,-1.694 0.681,-3.458 l 0,-21.994 c 0,-2.012 -0.139,-3.292 -0.412,-3.836 -0.276,-0.547 -1.048,-1.091 -2.316,-1.636 l -1.206,-0.504 0,-0.337 7.893,-2.95 z"
       id="path17"
       inkscape:connector-curvature="0"
       style="fill:#231f20" /><path
       d="m 126.468,85.487 c -1.245,1.587 -2.562,2.779 -3.954,3.572 -1.391,0.794 -2.864,1.19 -4.419,1.19 -1.554,0 -2.847,-0.521 -3.879,-1.559 -1.031,-1.04 -1.547,-2.349 -1.547,-3.925 0,-1.744 0.819,-3.228 2.455,-4.446 1.636,-1.223 4.337,-2.363 8.105,-3.422 l 2.9,-0.84 0,-3.29 c 0,-1.441 -0.085,-2.445 -0.253,-3.01 -0.167,-0.565 -0.532,-1.045 -1.093,-1.438 -0.856,-0.627 -1.906,-0.943 -3.153,-0.943 -1.292,0 -2.257,0.273 -2.903,0.817 -0.645,0.543 -0.967,1.364 -0.967,2.467 l 0,1.044 -4.581,1.462 0,-0.631 c 0,-1.685 0.98,-3.286 2.942,-4.802 1.932,-1.474 4.339,-2.211 7.217,-2.211 2.383,0 4.105,0.483 5.165,1.45 1.058,0.979 1.587,2.558 1.587,4.743 l 0,9.948 c 0,2.537 0.226,4.224 0.676,5.066 0.45,0.842 1.343,1.263 2.68,1.263 0.423,0 0.887,-0.032 1.395,-0.101 l 0,1.234 c -1.381,0.749 -2.757,1.122 -4.123,1.122 -1.183,0 -2.13,-0.396 -2.841,-1.19 -0.716,-0.79 -1.183,-1.983 -1.409,-3.57 z m -0.339,-8.021 -1.203,0.376 c -3.265,1.02 -5.409,1.936 -6.429,2.75 -1.02,0.815 -1.529,1.99 -1.529,3.521 0,1.005 0.347,1.876 1.044,2.614 0.698,0.737 1.516,1.105 2.46,1.105 1.575,0 3.032,-0.731 4.37,-2.2 0.858,-0.965 1.288,-2.294 1.288,-3.992 l -10e-4,-4.174 0,0 z"
       id="path19"
       inkscape:connector-curvature="0"
       style="fill:#231f20" /><path
       d="m 145.464,90.25 -9.001,-18.614 c -0.902,-1.778 -1.587,-2.924 -2.051,-3.434 -0.466,-0.513 -1.05,-0.769 -1.755,-0.769 l -0.318,0 0,-1.293 9.778,0 0,1.293 -0.38,0 c -1.376,0 -2.064,0.344 -2.064,1.028 0,0.464 0.385,1.506 1.155,3.131 l 6.364,13.293 5.573,-13.271 c 0.606,-1.399 0.911,-2.358 0.911,-2.877 0,-0.869 -0.76,-1.304 -2.275,-1.304 l -0.357,0 0,-1.293 7.88,0 0,1.293 -0.318,0 c -0.662,0 -1.245,0.295 -1.746,0.883 -0.501,0.588 -1.103,1.687 -1.81,3.3 l -8.172,18.634 -1.414,0 0,0 z"
       id="path21"
       inkscape:connector-curvature="0"
       style="fill:#231f20" /><path
       d="m 169.677,90.25 c -3.477,0 -6.338,-1.161 -8.583,-3.482 -2.245,-2.321 -3.368,-5.284 -3.368,-8.893 0,-3.593 1.123,-6.548 3.368,-8.869 2.245,-2.323 5.106,-3.482 8.583,-3.482 3.489,0 6.357,1.159 8.604,3.482 2.244,2.321 3.367,5.276 3.367,8.869 0,3.608 -1.124,6.571 -3.367,8.893 -2.247,2.323 -5.115,3.482 -8.604,3.482 z m 0,-1.462 c 2.167,0 3.912,-0.997 5.235,-2.998 1.323,-2.001 1.983,-4.637 1.983,-7.915 0,-3.259 -0.66,-5.889 -1.983,-7.888 -1.323,-2.001 -3.068,-3 -5.235,-3 -2.155,0 -3.894,1.001 -5.217,3 -1.323,1.999 -1.983,4.631 -1.983,7.888 0,3.278 0.66,5.916 1.983,7.915 1.323,2.001 3.061,2.998 5.217,2.998 z"
       id="path23"
       inkscape:connector-curvature="0"
       style="fill:#231f20" /><path
       d="m 190.321,71.648 0,12.42 c 0,1.762 0.234,2.915 0.708,3.458 0.472,0.544 1.462,0.813 2.975,0.813 l 0.276,0 0,1.293 -11.879,0 0,-1.292 0.385,0 c 1.461,0 2.422,-0.271 2.883,-0.813 0.462,-0.543 0.691,-1.694 0.691,-3.458 l 0,-9.452 c 0,-1.933 -0.142,-3.173 -0.423,-3.719 -0.283,-0.547 -1.05,-1.085 -2.306,-1.618 l -1.206,-0.524 0,-0.338 7.896,-2.894 0,4.833 c 1.687,-1.629 3.286,-2.852 4.798,-3.666 1.51,-0.813 2.928,-1.223 4.253,-1.223 1.915,0 3.495,0.653 4.75,1.958 1.279,1.333 1.919,3.759 1.919,7.28 l 0,9.364 c 0,1.762 0.234,2.913 0.702,3.458 0.468,0.542 1.454,0.812 2.958,0.812 l 0.299,0 0,1.293 -11.875,0 0,-1.293 0.338,0 c 1.491,0 2.466,-0.271 2.928,-0.823 0.459,-0.549 0.69,-1.699 0.69,-3.446 l 0,-9.45 c 0,-2.074 -0.34,-3.577 -1.02,-4.505 -0.681,-0.924 -1.792,-1.388 -3.335,-1.388 -1.123,0 -2.3,0.245 -3.537,0.727 -1.232,0.481 -2.522,1.212 -3.868,2.193 z"
       id="path25"
       inkscape:connector-curvature="0"
       style="fill:#231f20" /><path
       d="m 79.337,58.715 0,12.941 7.003,0 c 1.87,0 3.12,-0.275 3.749,-0.824 0.839,-0.723 1.307,-1.995 1.405,-3.816 l 0.875,0 0,11.211 -0.875,0 C 91.267,76.649 91.042,75.636 90.815,75.189 90.525,74.63 90.048,74.194 89.388,73.874 88.726,73.556 87.71,73.396 86.34,73.396 l -7.003,0 0,10.816 c 0,1.453 0.064,2.335 0.191,2.649 0.126,0.316 0.353,0.566 0.673,0.751 0.321,0.187 0.929,0.277 1.829,0.277 l 5.532,0 c 1.843,0 3.184,-0.132 4.016,-0.396 0.832,-0.263 1.635,-0.782 2.404,-1.557 0.995,-1.021 2.013,-2.561 3.055,-4.617 l 1.071,0 -2.831,8.309 -25.277,0 0,-1.293 1.155,0 c 0.769,0 1.5,-0.188 2.191,-0.561 0.514,-0.261 0.861,-0.652 1.047,-1.171 0.184,-0.52 0.275,-1.585 0.275,-3.198 l 0,-20.242 c 0,-2.125 -0.21,-3.436 -0.625,-3.933 -0.578,-0.661 -1.542,-0.991 -2.888,-0.991 l -1.155,0 0,-1.269 25.288,0 0.291,7.144 -1.072,0 C 94.175,62.388 93.804,61.203 93.397,60.556 92.99,59.91 92.39,59.416 91.594,59.073 90.955,58.832 89.833,58.71 88.224,58.71 l -8.887,0 0,0.005 z"
       id="path27"
       inkscape:connector-curvature="0"
       style="fill:#231f20" /></g></svg>